<svg width="16" height="27" viewBox="0 0 16 27" fill="none" xmlns="http://www.w3.org/2000/svg">
<path d="M0.293034 26.608L0 24.1348L4.13771 12.7297C4.43075 12.9974 4.74332 13.2176 5.07542 13.3905C5.40752 13.5634 5.75916 13.6987 6.13034 13.7964L2.1157 24.8615L0.293034 26.608ZM15.7069 26.608L13.8842 24.8615L9.86961 13.7964C10.2408 13.6987 10.5924 13.5634 10.9245 13.3905C11.2566 13.2176 11.5692 12.9974 11.8622 12.7297L15.9999 24.1348L15.7069 26.608ZM7.99997 11.8095C6.83759 11.8095 5.84858 11.4017 5.03296 10.5861C4.21734 9.77044 3.80952 8.78143 3.80952 7.61905C3.80952 6.62857 4.10745 5.7729 4.7033 5.05202C5.29915 4.33115 6.0171 3.86229 6.85714 3.64544V0H9.1428V3.64544C9.98285 3.86229 10.7008 4.33115 11.2966 5.05202C11.8925 5.7729 12.1904 6.62857 12.1904 7.61905C12.1904 8.78143 11.7826 9.77044 10.967 10.5861C10.1514 11.4017 9.16236 11.8095 7.99997 11.8095ZM7.99997 9.52384C8.52941 9.52384 8.97923 9.33873 9.34944 8.96852C9.71965 8.5983 9.90476 8.14848 9.90476 7.61905C9.90476 7.08961 9.71965 6.63979 9.34944 6.26958C8.97923 5.89936 8.52941 5.71426 7.99997 5.71426C7.47054 5.71426 7.02072 5.89936 6.6505 6.26958C6.28029 6.63979 6.09518 7.08961 6.09518 7.61905C6.09518 8.14848 6.28029 8.5983 6.6505 8.96852C7.02072 9.33873 7.47054 9.52384 7.99997 9.52384Z" fill="#2E5BFF"/>
</svg>
