<svg width="36" height="34" viewBox="0 0 36 34" fill="none" xmlns="http://www.w3.org/2000/svg">
<path d="M8.68886 33.9999C7.53616 33.9999 6.5554 33.5955 5.74657 32.7867C4.93775 31.9779 4.53333 30.9971 4.53333 29.8444C4.53333 28.6917 4.93775 27.711 5.74657 26.9021C6.5554 26.0933 7.53616 25.6889 8.68886 25.6889C9.01239 25.6889 9.33011 25.7291 9.64202 25.8095C9.95393 25.8899 10.2484 25.9979 10.5254 26.1335L13.5216 22.4051C12.8939 21.7212 12.4609 20.956 12.2226 20.1094C11.9843 19.2628 11.9359 18.4113 12.0773 17.555L7.72406 16.1136C7.34434 16.7239 6.84403 17.2131 6.22313 17.5811C5.60222 17.9492 4.91302 18.1333 4.15553 18.1333C3.00283 18.1333 2.02207 17.7289 1.21324 16.92C0.404413 16.1112 0 15.1304 0 13.9777C0 12.8251 0.404413 11.8443 1.21324 11.0355C2.02207 10.2266 3.00283 9.82222 4.15553 9.82222C5.30823 9.82222 6.28899 10.2266 7.09782 11.0355C7.90664 11.8443 8.31106 12.8251 8.31106 13.9777C8.31106 14.0669 8.30863 14.1415 8.30379 14.2015C8.29895 14.2616 8.29653 14.3216 8.29653 14.3817L12.6353 15.8899C13.0518 15.1189 13.6238 14.4573 14.3512 13.9052C15.0787 13.353 15.9132 12.9985 16.8547 12.8416V8.20354C15.8822 7.97494 15.0966 7.48335 14.4979 6.72876C13.8993 5.97418 13.6 5.11643 13.6 4.15553C13.6 3.00283 14.0044 2.02207 14.8132 1.21324C15.6221 0.404413 16.6028 0 17.7555 0C18.9082 0 19.889 0.404413 20.6978 1.21324C21.5066 2.02207 21.9111 3.00283 21.9111 4.15553C21.9111 5.11643 21.6079 5.97418 21.0015 6.72876C20.3951 7.48335 19.6134 7.97494 18.6564 8.20354V12.8416C19.5979 12.9985 20.43 13.353 21.1526 13.9052C21.8752 14.4573 22.4496 15.1189 22.8758 15.8899L27.2145 14.3817C27.2048 14.3119 27.2 14.2495 27.2 14.1943C27.2 14.139 27.2 14.0669 27.2 13.9777C27.2 12.8251 27.6044 11.8443 28.4132 11.0355C29.2221 10.2266 30.2028 9.82222 31.3555 9.82222C32.5082 9.82222 33.489 10.2266 34.2978 11.0355C35.1066 11.8443 35.5111 12.8251 35.5111 13.9777C35.5111 15.1304 35.1066 16.1112 34.2978 16.92C33.489 17.7289 32.5082 18.1333 31.3555 18.1333C30.598 18.1333 29.905 17.9492 29.2763 17.5811C28.6476 17.2131 28.1512 16.7239 27.787 16.1136L23.4337 17.555C23.5752 18.4113 23.5267 19.2589 23.2884 20.0977C23.0502 20.9366 22.6172 21.7008 21.9895 22.3905L24.9856 26.0957C25.2627 25.9698 25.5571 25.8705 25.869 25.7979C26.1809 25.7252 26.4987 25.6889 26.8222 25.6889C27.9749 25.6889 28.9557 26.0933 29.7645 26.9021C30.5733 27.711 30.9777 28.6917 30.9777 29.8444C30.9777 30.9971 30.5733 31.9779 29.7645 32.7867C28.9557 33.5955 27.9749 33.9999 26.8222 33.9999C25.6695 33.9999 24.6887 33.5955 23.8799 32.7867C23.0711 31.9779 22.6667 30.9971 22.6667 29.8444C22.6667 29.3698 22.7437 28.9116 22.8977 28.4699C23.0517 28.0282 23.2818 27.6233 23.5879 27.2552L20.5917 23.4977C19.7335 24.0091 18.7867 24.2649 17.7512 24.2649C16.7157 24.2649 15.764 24.0091 14.8961 23.4977L11.9232 27.2552C12.2196 27.6233 12.4472 28.0282 12.6061 28.4699C12.765 28.9116 12.8444 29.3698 12.8444 29.8444C12.8444 30.9971 12.44 31.9779 11.6311 32.7867C10.8223 33.5955 9.84156 33.9999 8.68886 33.9999ZM4.15553 15.8667C4.68055 15.8667 5.12662 15.6831 5.49375 15.316C5.86088 14.9488 6.04444 14.5028 6.04444 13.9777C6.04444 13.4527 5.86088 13.0067 5.49375 12.6395C5.12662 12.2724 4.68055 12.0888 4.15553 12.0888C3.63051 12.0888 3.18443 12.2724 2.8173 12.6395C2.45018 13.0067 2.26661 13.4527 2.26661 13.9777C2.26661 14.5028 2.45018 14.9488 2.8173 15.316C3.18443 15.6831 3.63051 15.8667 4.15553 15.8667ZM8.68886 31.7333C9.21388 31.7333 9.65996 31.5498 10.0271 31.1826C10.3942 30.8155 10.5778 30.3694 10.5778 29.8444C10.5778 29.3194 10.3942 28.8733 10.0271 28.5062C9.65996 28.1391 9.21388 27.9555 8.68886 27.9555C8.16384 27.9555 7.71776 28.1391 7.35064 28.5062C6.98351 28.8733 6.79994 29.3194 6.79994 29.8444C6.79994 30.3694 6.98351 30.8155 7.35064 31.1826C7.71776 31.5498 8.16384 31.7333 8.68886 31.7333ZM17.7555 6.04444C18.2805 6.04444 18.7266 5.86088 19.0938 5.49375C19.4609 5.12662 19.6444 4.68055 19.6444 4.15553C19.6444 3.63051 19.4609 3.18443 19.0938 2.8173C18.7266 2.45018 18.2805 2.26661 17.7555 2.26661C17.2305 2.26661 16.7844 2.45018 16.4173 2.8173C16.0502 3.18443 15.8666 3.63051 15.8666 4.15553C15.8666 4.68055 16.0502 5.12662 16.4173 5.49375C16.7844 5.86088 17.2305 6.04444 17.7555 6.04444ZM17.7555 21.9982C18.7261 21.9982 19.55 21.6597 20.2271 20.9826C20.9041 20.3055 21.2427 19.4817 21.2427 18.5111C21.2427 17.5405 20.9041 16.7167 20.2271 16.0396C19.55 15.3625 18.7261 15.0239 17.7555 15.0239C16.7849 15.0239 15.9611 15.3625 15.284 16.0396C14.6069 16.7167 14.2684 17.5405 14.2684 18.5111C14.2684 19.4817 14.6069 20.3055 15.284 20.9826C15.9611 21.6597 16.7849 21.9982 17.7555 21.9982ZM26.8222 31.7333C27.3472 31.7333 27.7933 31.5498 28.1604 31.1826C28.5275 30.8155 28.7111 30.3694 28.7111 29.8444C28.7111 29.3194 28.5275 28.8733 28.1604 28.5062C27.7933 28.1391 27.3472 27.9555 26.8222 27.9555C26.2972 27.9555 25.8511 28.1391 25.484 28.5062C25.1168 28.8733 24.9333 29.3194 24.9333 29.8444C24.9333 30.3694 25.1168 30.8155 25.484 31.1826C25.8511 31.5498 26.2972 31.7333 26.8222 31.7333ZM31.3555 15.8667C31.8805 15.8667 32.3266 15.6831 32.6938 15.316C33.0609 14.9488 33.2444 14.5028 33.2444 13.9777C33.2444 13.4527 33.0609 13.0067 32.6938 12.6395C32.3266 12.2724 31.8805 12.0888 31.3555 12.0888C30.8305 12.0888 30.3844 12.2724 30.0173 12.6395C29.6502 13.0067 29.4666 13.4527 29.4666 13.9777C29.4666 14.5028 29.6502 14.9488 30.0173 15.316C30.3844 15.6831 30.8305 15.8667 31.3555 15.8667Z" fill="#2E5BFF"/>
</svg>
