<svg width="26" height="26" viewBox="0 0 26 26" fill="none" xmlns="http://www.w3.org/2000/svg">
<path d="M1.50034 25.9991V22.5368H6.09368L2.23896 9.92244C1.57343 9.57621 1.03388 9.07418 0.620329 8.41634C0.206776 7.75851 0 7.03142 0 6.23509C0 5.09061 0.40153 4.11684 1.20459 3.31378C2.00765 2.51072 2.98142 2.10919 4.1259 2.10919C5.07227 2.10919 5.90034 2.3905 6.61011 2.95313C7.31988 3.51576 7.80556 4.23467 8.06716 5.10987H13.2145V3.23442C13.2145 2.91512 13.3222 2.64776 13.5376 2.43233C13.7531 2.2169 14.0204 2.10919 14.3397 2.10919C14.5359 2.10919 14.7186 2.1592 14.8879 2.25922C15.0572 2.35925 15.188 2.49966 15.2803 2.68047V2.88245L17.9174 0.424203C18.1329 0.208771 18.3824 0.0746067 18.6662 0.0217108C18.9499 -0.031185 19.2273 0.0125749 19.4986 0.15299L25.2633 2.82474C25.5057 2.94592 25.6783 3.12144 25.7812 3.3513C25.8841 3.58115 25.8827 3.80956 25.7769 4.03653C25.6557 4.27889 25.4802 4.43421 25.2503 4.5025C25.0205 4.57078 24.7921 4.55203 24.5651 4.44623L19.0196 1.88411L15.4649 5.18486V7.28533L19.0196 10.5111L24.5651 7.94893C24.7921 7.84314 25.0243 7.82823 25.2619 7.90421C25.4994 7.98019 25.6711 8.13166 25.7769 8.35863C25.8981 8.60099 25.9033 8.83325 25.7927 9.05541C25.6821 9.27757 25.5057 9.44924 25.2633 9.57042L19.4986 12.2883C19.2273 12.4288 18.9499 12.4701 18.6662 12.4124C18.3824 12.3547 18.1329 12.2229 17.9174 12.0171L15.2803 9.58773V9.78971C15.188 9.93975 15.0572 10.0725 14.8879 10.1879C14.7186 10.3033 14.5359 10.361 14.3397 10.361C14.0204 10.361 13.7531 10.2533 13.5376 10.0379C13.3222 9.82242 13.2145 9.55506 13.2145 9.23577V7.36032H8.06716C7.99214 7.62769 7.88923 7.88737 7.75843 8.13936C7.62763 8.39134 7.47278 8.62217 7.29389 8.83183L14.6802 22.5368H20.2545V25.9991H1.50034ZM4.1259 8.11054C4.64718 8.11054 5.09008 7.92829 5.45459 7.56378C5.8191 7.19927 6.00135 6.75637 6.00135 6.23509C6.00135 5.71381 5.8191 5.27092 5.45459 4.90641C5.09008 4.5419 4.64718 4.35964 4.1259 4.35964C3.60462 4.35964 3.16173 4.5419 2.79722 4.90641C2.43271 5.27092 2.25045 5.71381 2.25045 6.23509C2.25045 6.75637 2.43271 7.19927 2.79722 7.56378C3.16173 7.92829 3.60462 8.11054 4.1259 8.11054ZM8.41915 22.5368H12.095L5.47045 10.2167C5.3935 10.2648 5.27231 10.3057 5.10688 10.3394C4.94145 10.373 4.80103 10.3802 4.68561 10.361L8.41915 22.5368Z" fill="#2E5BFF"/>
</svg>
